<svg width="40" height="40" viewBox="0 0 40 40" fill="none" xmlns="http://www.w3.org/2000/svg">
<path d="M5.48833 15.4883C5 15.9767 5 16.7617 5 18.3333V28.3333C5 29.905 5 30.69 5.48833 31.1783C5.97667 31.6667 6.76167 31.6667 8.33333 31.6667C9.905 31.6667 10.69 31.6667 11.1783 31.1783C11.6667 30.69 11.6667 29.905 11.6667 28.3333V18.3333C11.6667 16.7617 11.6667 15.9767 11.1783 15.4883C10.69 15 9.905 15 8.33333 15C6.76167 15 5.97667 15 5.48833 15.4883Z" fill="#003153"/>
<path opacity="0.4" d="M28.8213 3.82165C28.333 4.30998 28.333 5.09498 28.333 6.66665V28.3333C28.333 29.905 28.333 30.69 28.8213 31.1783C29.3097 31.6666 30.0947 31.6666 31.6663 31.6666C33.238 31.6666 34.023 31.6666 34.5113 31.1783C34.9997 30.69 34.9997 29.905 34.9997 28.3333V6.66665C34.9997 5.09498 34.9997 4.30998 34.5113 3.82165C34.023 3.33331 33.238 3.33331 31.6663 3.33331C30.0947 3.33331 29.3097 3.33331 28.8213 3.82165Z" fill="#003153"/>
<path opacity="0.7" d="M16.667 11.6666C16.667 10.095 16.667 9.30998 17.1553 8.82165C17.6437 8.33331 18.4287 8.33331 20.0003 8.33331C21.572 8.33331 22.357 8.33331 22.8453 8.82165C23.3337 9.30998 23.3337 10.095 23.3337 11.6666V28.3333C23.3337 29.905 23.3337 30.69 22.8453 31.1783C22.357 31.6666 21.572 31.6666 20.0003 31.6666C18.4287 31.6666 17.6437 31.6666 17.1553 31.1783C16.667 30.69 16.667 29.905 16.667 28.3333V11.6666Z" fill="#003153"/>
<path d="M5 35.4167C4.66848 35.4167 4.35054 35.5484 4.11612 35.7828C3.8817 36.0172 3.75 36.3352 3.75 36.6667C3.75 36.9982 3.8817 37.3162 4.11612 37.5506C4.35054 37.785 4.66848 37.9167 5 37.9167H35C35.3315 37.9167 35.6495 37.785 35.8839 37.5506C36.1183 37.3162 36.25 36.9982 36.25 36.6667C36.25 36.3352 36.1183 36.0172 35.8839 35.7828C35.6495 35.5484 35.3315 35.4167 35 35.4167H5Z" fill="#003153"/>
</svg>
